<?xml version="1.0" standalone="no"?>
<!DOCTYPE svg PUBLIC "-//W3C//DTD SVG 20010904//EN"
 "http://www.w3.org/TR/2001/REC-SVG-20010904/DTD/svg10.dtd">
<svg version="1.0" xmlns="http://www.w3.org/2000/svg"
 width="982.000000pt" height="982.000000pt" viewBox="0 0 982.000000 982.000000"
 preserveAspectRatio="xMidYMid meet">
<metadata>
Created by potrace 1.14, written by Peter Selinger 2001-2017
</metadata>
<g transform="translate(0.000000,982.000000) scale(0.100000,-0.100000)"
fill="#000000" stroke="none">
<path d="M3000 9811 c-80 -26 -124 -66 -141 -131 -8 -31 -13 -222 -16 -630
l-5 -586 47 -43 c59 -55 106 -74 178 -73 69 1 130 31 163 79 44 65 49 135 49
653 0 504 -4 564 -43 639 -32 61 -164 114 -232 92z"/>
<path d="M5469 9805 c-25 -8 -66 -32 -89 -53 -37 -33 -44 -45 -51 -93 -4 -29
-11 -304 -15 -610 l-7 -556 39 -48 c91 -110 205 -131 314 -59 84 56 93 128 88
758 -4 415 -7 488 -21 532 -18 56 -42 82 -102 112 -58 29 -103 34 -156 17z"/>
<path d="M6709 9806 c-157 -56 -168 -103 -169 -711 0 -498 13 -627 68 -688 31
-35 91 -58 150 -59 71 -1 118 19 176 73 l46 42 0 501 c0 541 -8 705 -37 764
-14 30 -29 41 -73 58 -77 30 -119 35 -161 20z"/>
<path d="M4195 9796 c-16 -7 -46 -31 -67 -54 -31 -34 -37 -50 -44 -109 -5 -37
-9 -309 -9 -603 0 -523 0 -536 21 -575 51 -98 180 -134 288 -81 31 15 69 45
90 70 l36 44 0 595 0 595 -58 54 c-81 74 -178 99 -257 64z"/>
<path d="M2965 7871 c-312 -6 -322 -7 -390 -32 -206 -76 -354 -187 -463 -347
-83 -121 -99 -158 -117 -259 -29 -156 -34 -722 -28 -2718 l6 -1930 68 -135
c76 -151 144 -241 245 -324 132 -108 283 -170 464 -189 161 -16 4172 -16 4345
0 208 20 372 90 514 220 88 80 142 155 219 303 l60 115 6 2000 c7 2076 1 2558
-29 2670 -57 214 -238 432 -445 535 -107 53 -163 69 -281 81 -118 11 -3655 20
-4174 10z m4222 -630 c69 -49 87 -79 102 -167 24 -132 33 -996 28 -2549 -5
-1526 -10 -1732 -38 -1839 -13 -51 -35 -75 -114 -126 l-61 -40 -1940 1 c-1903
0 -2392 6 -2446 28 -44 17 -119 92 -141 141 -19 42 -21 73 -28 505 -10 607
-10 2479 0 3262 l8 621 27 56 c25 52 68 95 126 127 42 23 271 26 2390 25
l2025 -1 62 -44z"/>
<path d="M3535 6570 c-118 -14 -190 -61 -236 -155 -29 -60 -31 -73 -40 -227
-19 -360 -2 -2687 20 -2760 16 -50 91 -131 149 -160 l47 -23 1435 0 c789 0
1457 4 1484 8 40 7 58 17 96 57 25 26 63 80 85 121 l38 73 -7 1336 c-3 734
-11 1381 -16 1437 -10 116 -21 141 -85 207 -67 69 -94 77 -290 87 -206 10
-2595 9 -2680 -1z"/>
<path d="M93 6945 c-62 -53 -86 -111 -81 -194 4 -81 35 -134 96 -169 58 -32
205 -42 622 -42 418 0 574 10 638 41 60 29 95 85 100 159 6 78 -12 125 -71
187 l-50 53 -607 0 -606 0 -41 -35z"/>
<path d="M8431 6944 c-61 -54 -84 -111 -79 -193 3 -54 9 -77 31 -110 59 -89
139 -100 697 -100 557 0 638 11 696 99 33 49 43 137 24 196 -7 21 -35 62 -63
91 l-50 53 -608 0 -609 0 -39 -36z"/>
<path d="M230 5741 c-111 -7 -133 -18 -181 -88 -22 -31 -34 -62 -37 -94 -8
-85 4 -117 70 -186 l61 -63 594 0 595 0 44 37 c100 81 120 172 61 284 -48 94
-60 99 -279 109 -198 10 -774 10 -928 1z"/>
<path d="M8613 5741 c-159 -7 -173 -12 -227 -89 -23 -32 -31 -56 -34 -101 -6
-82 10 -122 76 -186 l56 -55 594 0 593 0 49 41 c69 58 93 112 88 194 -3 51
-10 73 -34 107 -42 61 -82 77 -216 88 -119 10 -705 10 -945 1z"/>
<path d="M90 4454 c-61 -57 -80 -97 -80 -171 0 -46 6 -69 29 -109 59 -101 95
-106 747 -101 551 4 572 6 621 58 56 59 79 172 49 242 -7 18 -36 53 -64 80
l-51 47 -601 0 -601 0 -49 -46z"/>
<path d="M8434 4458 c-60 -55 -84 -104 -84 -170 0 -66 31 -130 80 -170 29 -22
51 -29 123 -37 242 -28 1011 -21 1119 9 82 23 137 102 138 198 0 66 -24 114
-84 170 l-46 42 -600 0 -600 0 -46 -42z"/>
<path d="M330 3269 c-175 -9 -216 -18 -257 -61 -45 -48 -63 -90 -63 -150 0
-65 28 -130 78 -180 l36 -38 617 0 617 0 37 41 c116 129 94 305 -46 363 -74
31 -644 45 -1019 25z"/>
<path d="M8675 3271 c-179 -11 -211 -18 -251 -54 -50 -43 -74 -96 -74 -162 0
-71 20 -119 73 -172 l41 -43 616 0 616 0 36 38 c106 110 105 257 -2 343 -26
21 -54 31 -105 39 -88 13 -776 21 -950 11z"/>
<path d="M2984 1462 c-81 -28 -101 -46 -120 -104 -15 -47 -18 -122 -22 -644
l-4 -591 49 -43 c62 -55 99 -70 171 -70 70 0 136 30 168 78 44 64 49 135 49
647 0 613 -6 650 -112 707 -67 36 -117 42 -179 20z"/>
<path d="M6685 1457 c-69 -33 -101 -71 -121 -142 -14 -50 -17 -128 -21 -470
-6 -455 4 -658 36 -729 30 -69 98 -107 187 -107 65 0 107 17 167 71 l47 42 0
501 c0 522 -8 699 -34 761 -12 29 -27 42 -68 61 -83 37 -134 40 -193 12z"/>
<path d="M4183 1440 c-76 -44 -95 -76 -104 -179 -11 -123 -10 -963 1 -1047 12
-91 34 -137 80 -168 108 -71 224 -50 313 58 l37 45 0 593 0 594 -52 51 c-68
65 -104 83 -170 83 -40 0 -65 -7 -105 -30z"/>
<path d="M5435 1452 c-48 -30 -94 -83 -106 -121 -7 -23 -13 -242 -16 -608 l-6
-571 43 -51 c54 -64 108 -91 184 -91 81 0 149 38 182 102 25 49 36 233 36 628
0 459 -10 587 -50 644 -38 56 -100 86 -176 86 -42 0 -71 -6 -91 -18z"/>
</g>
</svg>
